<svg width="440" height="243" viewBox="0 0 440 243" fill="none" xmlns="http://www.w3.org/2000/svg">
<rect width="440" height="242.5" rx="5" fill="#00CC88"/>
<path d="M68.72 103.92C58.64 103.92 51.584 111.024 51.584 121.104C51.584 131.184 58.688 138.24 68.768 138.24C77.648 138.24 83.264 132.432 84.992 126.624V118.992H67.136V125.04H77.552C76.304 128.832 73.472 130.992 69.392 130.992C63.488 130.992 59.936 127.344 59.936 121.104C59.936 115.248 63.44 111.504 68.72 111.504C71.792 111.504 74.096 112.704 75.344 114.96H84.416C82.64 108.048 76.784 103.92 68.72 103.92ZM97.7465 125.568C97.7465 120.96 100.003 119.616 103.891 119.616H106.147V110.928C102.547 110.928 99.6185 112.848 97.7465 115.68V111.216H89.5385V138H97.7465V125.568ZM121.878 117.408C124.614 117.408 126.918 119.088 126.918 122.016H116.646C117.126 119.04 119.19 117.408 121.878 117.408ZM134.694 129.12H125.958C125.286 130.56 123.99 131.712 121.686 131.712C119.046 131.712 116.886 130.08 116.598 126.576H135.174C135.27 125.76 135.318 124.944 135.318 124.176C135.318 116.016 129.798 110.832 121.974 110.832C114.006 110.832 108.438 116.112 108.438 124.608C108.438 133.104 114.102 138.384 121.974 138.384C128.646 138.384 133.398 134.352 134.694 129.12ZM151.456 117.408C154.192 117.408 156.496 119.088 156.496 122.016H146.224C146.704 119.04 148.768 117.408 151.456 117.408ZM164.272 129.12H155.536C154.864 130.56 153.568 131.712 151.264 131.712C148.624 131.712 146.464 130.08 146.176 126.576H164.752C164.848 125.76 164.896 124.944 164.896 124.176C164.896 116.016 159.376 110.832 151.552 110.832C143.584 110.832 138.016 116.112 138.016 124.608C138.016 133.104 143.68 138.384 151.552 138.384C158.224 138.384 162.976 134.352 164.272 129.12ZM187.706 138H195.866V122.352C195.866 115.152 191.738 110.928 185.546 110.928C181.946 110.928 179.066 112.512 177.434 114.768V111.216H169.226V138H177.434V123.456C177.434 119.808 179.45 117.792 182.57 117.792C185.69 117.792 187.706 119.808 187.706 123.456V138ZM216.114 129.744L207.762 104.304H199.026L210.978 138H221.25L233.202 104.304H224.514L216.114 129.744ZM262.84 124.608C262.84 116.112 256.792 110.832 248.92 110.832C241.096 110.832 235 116.112 235 124.608C235 133.104 240.952 138.384 248.824 138.384C256.696 138.384 262.84 133.104 262.84 124.608ZM243.352 124.608C243.352 120.048 245.944 117.936 248.92 117.936C251.8 117.936 254.488 120.048 254.488 124.608C254.488 129.12 251.752 131.28 248.824 131.28C245.848 131.28 243.352 129.12 243.352 124.608ZM267.195 138H275.403V102.48H267.195V138ZM281.351 138H289.559V111.216H281.351V138ZM285.479 108.432C288.359 108.432 290.327 106.464 290.327 104.016C290.327 101.52 288.359 99.552 285.479 99.552C282.551 99.552 280.583 101.52 280.583 104.016C280.583 106.464 282.551 108.432 285.479 108.432ZM296.803 128.688C296.803 135.648 300.691 138 306.259 138H310.435V131.04H307.507C305.683 131.04 305.011 130.368 305.011 128.784V118.032H310.387V111.216H305.011V104.688H296.803V111.216H293.539V118.032H296.803V128.688ZM315.007 138H323.215V111.216H315.007V138ZM319.135 108.432C322.015 108.432 323.983 106.464 323.983 104.016C323.983 101.52 322.015 99.552 319.135 99.552C316.207 99.552 314.239 101.52 314.239 104.016C314.239 106.464 316.207 108.432 319.135 108.432ZM355.372 124.608C355.372 116.112 349.324 110.832 341.452 110.832C333.628 110.832 327.532 116.112 327.532 124.608C327.532 133.104 333.484 138.384 341.356 138.384C349.228 138.384 355.372 133.104 355.372 124.608ZM335.884 124.608C335.884 120.048 338.476 117.936 341.452 117.936C344.332 117.936 347.02 120.048 347.02 124.608C347.02 129.12 344.284 131.28 341.356 131.28C338.38 131.28 335.884 129.12 335.884 124.608ZM378.206 138H386.366V122.352C386.366 115.152 382.238 110.928 376.046 110.928C372.446 110.928 369.566 112.512 367.934 114.768V111.216H359.726V138H367.934V123.456C367.934 119.808 369.95 117.792 373.07 117.792C376.19 117.792 378.206 119.808 378.206 123.456V138Z" fill="white"/>
</svg>
