<svg width="440" height="243" viewBox="0 0 440 243" fill="none" xmlns="http://www.w3.org/2000/svg">
<rect width="440" height="242.5" rx="5" fill="#F7BA29"/>
<path d="M197.199 85.056C197.199 74.928 189.567 67.824 179.967 67.824C170.415 67.824 162.639 74.928 162.639 85.056C162.639 95.184 170.415 102.336 179.967 102.336C189.519 102.336 197.199 95.184 197.199 85.056ZM171.039 85.056C171.039 79.056 174.495 75.264 179.967 75.264C185.343 75.264 188.847 79.056 188.847 85.056C188.847 90.96 185.343 94.848 179.967 94.848C174.495 94.848 171.039 90.96 171.039 85.056ZM199.221 75.216L208.725 102H218.853L228.357 75.216H219.621L213.813 94.32L208.005 75.216H199.221ZM243.62 81.408C246.356 81.408 248.66 83.088 248.66 86.016H238.388C238.868 83.04 240.932 81.408 243.62 81.408ZM256.436 93.12H247.7C247.028 94.56 245.732 95.712 243.428 95.712C240.788 95.712 238.628 94.08 238.34 90.576H256.916C257.012 89.76 257.06 88.944 257.06 88.176C257.06 80.016 251.54 74.832 243.716 74.832C235.748 74.832 230.18 80.112 230.18 88.608C230.18 97.104 235.844 102.384 243.716 102.384C250.388 102.384 255.14 98.352 256.436 93.12ZM269.598 89.568C269.598 84.96 271.854 83.616 275.742 83.616H277.998V74.928C274.398 74.928 271.47 76.848 269.598 79.68V75.216H261.39V102H269.598V89.568ZM67.5019 138.912V159.792H75.4219C75.8539 158.16 77.1979 156.912 79.5019 156.912C82.4299 156.912 84.0139 158.592 84.0139 161.76C84.0139 164.784 82.6699 167.04 79.5499 167.04C76.8619 167.04 75.4699 165.408 75.1339 163.584H67.1179C67.4059 169.632 71.9659 174 79.8379 174C87.6139 174 91.9339 169.2 91.9339 161.808C91.9339 156.144 89.0059 150.336 81.3739 150.336C78.5899 150.336 76.1899 151.344 74.9419 152.736V146.112H89.9179V138.912H67.5019ZM144.365 174H152.525V158.352C152.525 151.152 148.253 146.928 141.629 146.928C137.741 146.928 134.381 149.088 132.605 151.92C130.781 148.704 127.517 146.928 123.485 146.928C119.981 146.928 117.245 148.416 115.661 150.576V147.216H107.453V174H115.661V159.456C115.661 155.952 117.677 154.032 120.797 154.032C123.917 154.032 125.933 155.952 125.933 159.456V174H134.093V159.456C134.093 155.952 136.109 154.032 139.229 154.032C142.349 154.032 144.365 155.952 144.365 159.456V174ZM158.265 174H166.473V147.216H158.265V174ZM162.393 144.432C165.273 144.432 167.241 142.464 167.241 140.016C167.241 137.52 165.273 135.552 162.393 135.552C159.465 135.552 157.497 137.52 157.497 140.016C157.497 142.464 159.465 144.432 162.393 144.432ZM172.421 174H180.629V138.48H172.421V174ZM186.578 174H194.786V138.48H186.578V174ZM200.734 174H208.942V147.216H200.734V174ZM204.862 144.432C207.742 144.432 209.71 142.464 209.71 140.016C209.71 137.52 207.742 135.552 204.862 135.552C201.934 135.552 199.966 137.52 199.966 140.016C199.966 142.464 201.934 144.432 204.862 144.432ZM241.098 160.608C241.098 152.112 235.05 146.832 227.178 146.832C219.354 146.832 213.258 152.112 213.258 160.608C213.258 169.104 219.21 174.384 227.082 174.384C234.954 174.384 241.098 169.104 241.098 160.608ZM221.61 160.608C221.61 156.048 224.202 153.936 227.178 153.936C230.058 153.936 232.746 156.048 232.746 160.608C232.746 165.12 230.01 167.28 227.082 167.28C224.106 167.28 221.61 165.12 221.61 160.608ZM263.933 174H272.093V158.352C272.093 151.152 267.965 146.928 261.773 146.928C258.173 146.928 255.293 148.512 253.661 150.768V147.216H245.453V174H253.661V159.456C253.661 155.808 255.677 153.792 258.797 153.792C261.917 153.792 263.933 155.808 263.933 159.456V174ZM286.336 160.56C286.336 169.008 291.568 174.384 298.096 174.384C302.08 174.384 304.912 172.56 306.4 170.208V174H314.608V147.216H306.4V151.008C304.96 148.656 302.128 146.832 298.144 146.832C291.568 146.832 286.336 152.112 286.336 160.56ZM306.4 160.608C306.4 164.88 303.664 167.232 300.544 167.232C297.472 167.232 294.688 164.832 294.688 160.56C294.688 156.288 297.472 153.984 300.544 153.984C303.664 153.984 306.4 156.336 306.4 160.608ZM318.914 160.56C318.914 169.008 324.146 174.384 330.722 174.384C334.658 174.384 337.49 172.608 338.978 170.16V174H347.186V138.48H338.978V150.912C337.346 148.464 334.274 146.832 330.722 146.832C324.146 146.832 318.914 152.112 318.914 160.56ZM338.978 160.608C338.978 164.88 336.242 167.232 333.122 167.232C330.05 167.232 327.266 164.832 327.266 160.56C327.266 156.288 330.05 153.984 333.122 153.984C336.242 153.984 338.978 156.336 338.978 160.608ZM374.868 166.224C374.724 156.24 360.228 159.264 360.228 154.992C360.228 153.696 361.284 152.928 363.204 152.928C365.508 152.928 366.9 154.128 367.14 155.952H374.724C374.196 150.672 370.356 146.832 363.444 146.832C356.436 146.832 352.548 150.576 352.548 155.136C352.548 164.976 367.14 161.856 367.14 166.176C367.14 167.376 366.036 168.336 363.924 168.336C361.668 168.336 359.988 167.088 359.796 165.216H351.684C352.068 170.4 356.868 174.384 364.02 174.384C370.74 174.384 374.868 170.88 374.868 166.224Z" fill="white"/>
</svg>
