<svg width="26" height="26" viewBox="0 0 26 26" fill="none" xmlns="http://www.w3.org/2000/svg">
<g clip-path="url(#clip0_102_4)">
<path d="M13.3831 25.3987C15.1077 25.3987 16.5066 23.9997 16.5066 22.2737H10.2596C10.2596 23.9997 11.6585 25.3987 13.3831 25.3987ZM23.9002 18.0886C22.9568 17.0749 21.1917 15.55 21.1917 10.5549C21.1917 6.76096 18.5316 3.72385 14.9446 2.97873V1.96115C14.9446 1.09836 14.2454 0.398651 13.3831 0.398651C12.5208 0.398651 11.8216 1.09836 11.8216 1.96115V2.97873C8.23468 3.72385 5.57452 6.76096 5.57452 10.5549C5.57452 15.55 3.80938 17.0749 2.86602 18.0886C2.57305 18.4035 2.44317 18.78 2.44561 19.1487C2.45098 19.9494 3.0794 20.7112 4.013 20.7112H22.7532C23.6868 20.7112 24.3157 19.9494 24.3206 19.1487C24.3231 18.78 24.1932 18.403 23.9002 18.0886V18.0886Z" fill="#00CC88"/>
</g>
<defs>
<clipPath id="clip0_102_4">
<rect width="25" height="25" fill="white" transform="translate(0.88311 0.398651)"/>
</clipPath>
</defs>
</svg>
